<svg width="16" height="16" viewBox="0 0 16 16" fill="none" xmlns="http://www.w3.org/2000/svg">
    <path d="M8 15C11.866 15 15 11.866 15 8C15 4.13401 11.866 1 8 1C4.13401 1 1 4.13401 1 8C1 11.866 4.13401 15 8 15Z"
          fill="#FAF5FF" fill-opacity="0.2"/>
    <path fill-rule="evenodd" clip-rule="evenodd"
          d="M8 14C11.3137 14 14 11.3137 14 8C14 4.68629 11.3137 2 8 2C4.68629 2 2 4.68629 2 8C2 11.3137 4.68629 14 8 14ZM8 15C11.866 15 15 11.866 15 8C15 4.13401 11.866 1 8 1C4.13401 1 1 4.13401 1 8C1 11.866 4.13401 15 8 15Z"
          fill="#A97EFF"/>
    <path d="M7.96591 11.1363C7.35227 11.1363 6.82386 10.9914 6.38068 10.7016C5.9375 10.4119 5.59659 10.0127 5.35795 9.50421C5.11932 8.99568 5 8.41472 5 7.76131C5 7.09654 5.12216 6.50989 5.36648 6.00136C5.61364 5.49 5.95739 5.09085 6.39773 4.80392C6.84091 4.51415 7.35795 4.36926 7.94886 4.36926C8.40909 4.36926 8.82386 4.45449 9.19318 4.62494C9.5625 4.7954 9.86506 5.03404 10.1009 5.34085C10.3366 5.64767 10.483 6.00563 10.5398 6.41472H9.53409C9.45739 6.11642 9.28693 5.85222 9.02273 5.6221C8.76136 5.38915 8.40909 5.27267 7.96591 5.27267C7.57386 5.27267 7.23011 5.37494 6.93466 5.57949C6.64205 5.78119 6.41335 6.06671 6.24858 6.43602C6.08665 6.8025 6.00568 7.2329 6.00568 7.72722C6.00568 8.2329 6.08523 8.67324 6.24432 9.04824C6.40625 9.42324 6.63352 9.71443 6.92614 9.92182C7.22159 10.1292 7.56818 10.2329 7.96591 10.2329C8.22727 10.2329 8.46449 10.1874 8.67756 10.0965C8.89062 10.0056 9.07102 9.87494 9.21875 9.70449C9.36648 9.53404 9.47159 9.32949 9.53409 9.09085H10.5398C10.483 9.47722 10.3423 9.82523 10.1179 10.1349C9.89631 10.4417 9.60227 10.686 9.2358 10.8678C8.87216 11.0468 8.44886 11.1363 7.96591 11.1363Z"
          fill="#A97EFF"/>
</svg>
