<svg width="16" height="16" viewBox="0 0 16 16" fill="none" xmlns="http://www.w3.org/2000/svg">
    <path d="M8 15C11.866 15 15 11.866 15 8C15 4.13401 11.866 1 8 1C4.13401 1 1 4.13401 1 8C1 11.866 4.13401 15 8 15Z"
          fill="#EDF3FF" fill-opacity="0.2"/>
    <path fill-rule="evenodd" clip-rule="evenodd"
          d="M8 14C11.3137 14 14 11.3137 14 8C14 4.68629 11.3137 2 8 2C4.68629 2 2 4.68629 2 8C2 11.3137 4.68629 14 8 14ZM8 15C11.866 15 15 11.866 15 8C15 4.13401 11.866 1 8 1C4.13401 1 1 4.13401 1 8C1 11.866 4.13401 15 8 15Z"
          fill="#1F6BFF"/>
    <path d="M10.2101 4H9.21203V11H10.2101V4ZM7.42008 11.12C7.85341 11.12 8.23508 11.025 8.56508 10.835C8.89174 10.6417 9.14841 10.3733 9.33508 10.03C9.51841 9.6833 9.61341 9.28167 9.62008 8.825H9.27508V8.055H9.62008C9.61341 7.59833 9.51841 7.19833 9.33508 6.855C9.14841 6.50833 8.89174 6.24 8.56508 6.05C8.23508 5.85667 7.85341 5.76 7.42008 5.76C6.95008 5.76 6.53174 5.87333 6.16503 6.1C5.79843 6.32333 5.51343 6.63833 5.31003 7.045C5.10343 7.45167 5.00003 7.91667 5.00003 8.44C5.00003 8.96333 5.10343 9.42833 5.31003 9.835C5.51343 10.2417 5.79843 10.5583 6.16503 10.785C6.53174 11.0083 6.95008 11.12 7.42008 11.12ZM7.62508 10.24C7.31174 10.24 7.03341 10.165 6.79008 10.015C6.54674 9.8617 6.35841 9.65 6.22508 9.38C6.08843 9.10667 6.02003 8.79333 6.02003 8.44C6.02003 8.08667 6.08843 7.775 6.22508 7.505C6.35841 7.23167 6.54674 7.02 6.79008 6.87C7.03341 6.71667 7.31174 6.64 7.62508 6.64C7.94174 6.64 8.22341 6.71667 8.47008 6.87C8.71341 7.02 8.90341 7.23167 9.04008 7.505C9.17674 7.775 9.24508 8.08667 9.24508 8.44C9.24508 8.79333 9.17674 9.10667 9.04008 9.38C8.90341 9.65 8.71341 9.8617 8.47008 10.015C8.22341 10.165 7.94174 10.24 7.62508 10.24Z"
          fill="#1F6BFF"/>
</svg>
