<svg width="16" height="16" viewBox="0 0 16 16" fill="none" xmlns="http://www.w3.org/2000/svg">
    <path fill-rule="evenodd" clip-rule="evenodd"
          d="M2.1714 9.72252C2.08771 9.66673 2.04063 9.59095 2.04049 9.51186C2.04035 9.43276 2.04049 8.54248 2.04049 8.54248L3.85049 8.17251C3.60272 8.11366 3.38129 8.01383 3.20681 7.88228C3.03232 7.75074 2.91044 7.59176 2.8525 7.42013C2.79455 7.2485 2.81017 6.16969 2.81017 6.16969C2.84365 6.09208 2.90404 6.17146 2.97755 6.26808L2.97755 6.26809L2.97755 6.26809L2.97755 6.26809C3.06428 6.38208 3.16925 6.52006 3.26981 6.45253C3.45558 6.32775 3.68543 6.23639 3.93797 6.18694C4.19052 6.13749 4.45756 6.13156 4.71426 6.16969C4.97097 6.20783 5.209 6.28879 5.40623 6.40506C5.60346 6.52132 5.75348 6.66912 5.84234 6.83469L7.52216 5.70646C7.60565 5.65038 7.71896 5.61877 7.83717 5.61856C7.95537 5.61836 8.06879 5.64959 8.15247 5.70538L9.99392 6.933C10.0821 6.76706 10.2316 6.61869 10.4284 6.50168C10.6252 6.38467 10.863 6.30283 11.1196 6.26377C11.3762 6.22471 11.6433 6.22969 11.8961 6.27827C11.9666 6.29181 12.0353 6.30863 12.1019 6.32852V6.31907H13.024V7.30429H13.0231C13.0207 7.37257 13.0083 7.44079 12.9859 7.50796C12.9285 7.67982 12.8071 7.83923 12.6329 7.97136C12.4588 8.1035 12.2376 8.20406 11.99 8.2637L13.04 8.96372V8.72279H13.9621V9.68719C13.9625 9.6922 13.9627 9.69722 13.9627 9.70226C13.9628 9.78135 13.916 9.85729 13.8325 9.91337L12.1826 11.0215C12.1137 10.8577 11.9828 10.7032 11.7899 10.5746C11.1908 10.1752 10.2205 10.1769 9.62281 10.5783C9.12489 10.9128 9.04251 11.4191 9.37518 11.8098V11.3036H10.2973V12.2889H10.2909L10.2946 12.2896L8.48103 13.5077C8.39755 13.5637 8.28424 13.5953 8.16603 13.5955C8.04782 13.5958 7.9344 13.5645 7.85072 13.5087L2.1714 9.72252Z"
          fill="#343330"/>
    <path fill-rule="evenodd" clip-rule="evenodd"
          d="M2.04051 8.52911C2.04064 8.60821 2.08773 8.68399 2.17141 8.73977L7.85074 12.526C7.93442 12.5818 8.04784 12.613 8.16604 12.6128C8.28425 12.6126 8.39756 12.581 8.48105 12.5249L10.2946 11.3068C10.0496 11.2613 9.81821 11.1743 9.6253 11.0457C9.02619 10.6463 9.02507 9.99707 9.62281 9.5956C10.2206 9.19413 11.1908 9.19247 11.7899 9.59188C11.9828 9.72048 12.1137 9.87499 12.1826 10.0388L13.8325 8.93062C13.916 8.87455 13.9629 8.79861 13.9627 8.71951C13.9626 8.64042 13.9155 8.56464 13.8318 8.50885L11.99 7.28096C12.2376 7.22132 12.4588 7.12075 12.6329 6.98862C12.8071 6.85649 12.9285 6.69708 12.9859 6.52522C13.0433 6.35336 13.0349 6.17464 12.9614 6.00568C12.8878 5.83672 12.7516 5.68301 12.5654 5.55885C12.3791 5.43468 12.1489 5.3441 11.8961 5.29553C11.6434 5.24695 11.3762 5.24196 11.1196 5.28102C10.863 5.32008 10.6252 5.40193 10.4284 5.51894C10.2316 5.63595 10.0821 5.78432 9.99393 5.95026L8.15249 4.72263C8.06881 4.66685 7.95539 4.63562 7.83718 4.63582C7.71897 4.63603 7.60566 4.66764 7.52218 4.72372L5.84236 5.85195C5.7535 5.68637 5.60347 5.53858 5.40624 5.42232C5.20902 5.30605 4.97098 5.22508 4.71428 5.18695C4.45757 5.14881 4.19053 5.15475 3.93799 5.2042C3.68545 5.25365 3.4556 5.34501 3.26982 5.46978C3.08404 5.59456 2.94836 5.7487 2.8754 5.91787C2.80244 6.08705 2.79457 6.26576 2.85251 6.43739C2.91046 6.60902 3.03234 6.768 3.20682 6.89954C3.38131 7.03108 3.60273 7.13092 3.8505 7.18976L2.17069 8.318C2.0872 8.37407 2.04037 8.45001 2.04051 8.52911Z"
          fill="#23C113"/>
    <path fill-rule="evenodd" clip-rule="evenodd"
          d="M11.4907 8.42263L11.4944 8.42509L8.55997 8.76113L8.04903 10.801L7.09821 10.1671L7.09968 10.1621H7.09765V9.70852H7.23351L7.4982 8.8115L5.46727 9.07979L4.51811 8.44702H4.51736V8.44651L4.51644 8.4459L4.51736 8.4458V7.99345H5.24797V8.36199L7.56292 8.09643L8.0542 6.13165L8.72383 6.57807V6.31178H9.00423V6.765L9.00503 6.76554L8.6313 8.05046L10.5501 7.7956L10.8103 7.96906H11.4945V8.42263H11.4907Z"
          fill="#343330"/>
    <path d="M10.5501 7.33815L11.4943 7.96763L8.55996 8.30367L8.04903 10.3435L7.0982 9.70962L7.49819 8.35404L5.46726 8.62233L4.51643 7.98845L7.56291 7.63897L8.05419 5.6742L9.00502 6.30808L8.63129 7.593L10.5501 7.33815Z"
          fill="#FF4733"/>
</svg>
