<svg width="16" height="16" viewBox="0 0 16 16" fill="none" xmlns="http://www.w3.org/2000/svg">
    <g clip-path="url(#clip0_6_140)">
        <path d="M7.5 14C11.0899 14 14 11.0899 14 7.5C14 3.91015 11.0899 1 7.5 1C3.91015 1 1 3.91015 1 7.5C1 11.0899 3.91015 14 7.5 14Z"
              fill="#FFF4EB" fill-opacity="0.15"/>
        <path d="M10.3842 13.8201C8.74235 14.6121 6.77319 14.7176 4.95472 13.9457C1.62211 12.5311 0.0575812 8.70548 1.46025 5.40101C2.86291 2.09653 6.70162 0.564492 10.0342 1.9791C12.9876 3.23274 14.5524 6.37988 13.894 9.3798"
              stroke="#F26522"/>
        <path d="M6.93732 11L7.37179 9.94505L9.40133 5H10.5L8.06799 11H6.93732Z" fill="#F26522"/>
        <path d="M8.06268 11L7.62821 9.94505L5.59867 5H4.5L6.93201 11H8.06268Z" fill="#F26522"/>
        <path d="M13 10C13.0901 10 13.1631 10.072 13.1631 10.1607V10.5033L13.3989 10.3484C13.4739 10.2992 13.5752 10.3191 13.6252 10.393C13.6752 10.4668 13.6549 10.5666 13.5799 10.6159L13.1631 10.8896V11.9717L14.1145 11.4306L14.1467 10.9382C14.1525 10.8496 14.2301 10.7824 14.32 10.7881C14.41 10.7938 14.4781 10.8703 14.4723 10.9589L14.4541 11.2374L14.7553 11.0662C14.8333 11.0218 14.9331 11.0481 14.9781 11.125C15.0232 11.2019 14.9964 11.3002 14.9184 11.3445L14.6172 11.5158L14.8713 11.6395C14.952 11.6789 14.9851 11.7753 14.9452 11.8548C14.9053 11.9344 14.8074 11.967 14.7266 11.9277L14.2776 11.709L13.3263 12.2501L14.2774 12.791L14.7264 12.5723C14.8072 12.533 14.9051 12.5656 14.945 12.6452C14.9849 12.7247 14.9518 12.8211 14.8711 12.8605L14.617 12.9842L14.9182 13.1555C14.9962 13.1999 15.0229 13.2981 14.9779 13.375C14.9329 13.4519 14.8331 13.4782 14.755 13.4338L14.4539 13.2626L14.4721 13.5411C14.4779 13.6297 14.4098 13.7061 14.3198 13.7119C14.2299 13.7176 14.1523 13.6504 14.1465 13.5618L14.1143 13.0694L13.1631 12.5284V13.6104L13.5799 13.8841C13.6549 13.9334 13.6752 14.0332 13.6252 14.107C13.5752 14.1809 13.4739 14.2008 13.3989 14.1516L13.1631 13.9967V14.3393C13.1631 14.428 13.0901 14.5 13 14.5C12.9099 14.5 12.8369 14.428 12.8369 14.3393V13.9967L12.6011 14.1516C12.5261 14.2008 12.4248 14.1809 12.3748 14.107C12.3249 14.0332 12.3451 13.9334 12.4201 13.8841L12.8369 13.6104V12.5284L11.8857 13.0694L11.8535 13.5618C11.8477 13.6504 11.7701 13.7176 11.6802 13.7119C11.5903 13.7061 11.5221 13.6297 11.5279 13.5411L11.5461 13.2625L11.245 13.4338C11.1669 13.4782 11.0671 13.4519 11.0221 13.375C10.977 13.2981 11.0038 13.1998 11.0818 13.1555L11.383 12.9842L11.1289 12.8604C11.0482 12.8211 11.0151 12.7247 11.055 12.6451C11.0949 12.5656 11.1928 12.533 11.2735 12.5723L11.7226 12.791L12.6737 12.2501L11.7224 11.709L11.2733 11.9277C11.1926 11.967 11.0947 11.9344 11.0548 11.8549C11.0148 11.7753 11.048 11.6789 11.1287 11.6396L11.3827 11.5158L11.0816 11.3445C11.0036 11.3002 10.9768 11.2019 11.0219 11.125C11.0669 11.0481 11.1667 11.0218 11.2447 11.0662L11.5459 11.2375L11.5277 10.9589C11.5219 10.8703 11.59 10.7939 11.68 10.7881C11.7699 10.7824 11.8475 10.8496 11.8533 10.9382L11.8855 11.4306L12.8369 11.9717V10.8896L12.4201 10.6159C12.3451 10.5666 12.3249 10.4668 12.3748 10.393C12.4248 10.3191 12.5261 10.2992 12.6011 10.3484L12.8369 10.5033V10.1607C12.8369 10.072 12.9099 10 13 10Z"
              fill="#389FD6"/>
    </g>
    <defs>
        <clipPath id="clip0_6_140">
            <rect width="16" height="16" fill="white"/>
        </clipPath>
    </defs>
</svg>
