<svg width="16" height="16" viewBox="0 0 16 16" fill="none" xmlns="http://www.w3.org/2000/svg">
    <path d="M8 15C11.866 15 15 11.866 15 8C15 4.13401 11.866 1 8 1C4.13401 1 1 4.13401 1 8C1 11.866 4.13401 15 8 15Z"
          fill="#F3F4F7" fill-opacity="0.15"/>
    <path fill-rule="evenodd" clip-rule="evenodd"
          d="M8 14C11.3137 14 14 11.3137 14 8C14 4.68629 11.3137 2 8 2C4.68629 2 2 4.68629 2 8C2 11.3137 4.68629 14 8 14ZM8 15C11.866 15 15 11.866 15 8C15 4.13401 11.866 1 8 1C4.13401 1 1 4.13401 1 8C1 11.866 4.13401 15 8 15Z"
          fill="#6E6E6E"/>
    <path d="M7.13714 12H8.15428V7.32741H9.70857V6.43027H8.15428V5.48C8.15428 5.12 8.4 4.87429 8.75428 4.87429H9.76V4H8.65714C7.75428 4 7.13714 4.57143 7.13714 5.40571V6.43027H6V7.32741H7.13714V12Z"
          fill="#6E6E6E"/>
</svg>
