<svg width="16" height="16" viewBox="0 0 16 16" fill="none" xmlns="http://www.w3.org/2000/svg">
    <g clip-path="url(#clip0_19_51)">
        <path d="M7.5 14C11.0899 14 14 11.0899 14 7.5C14 3.91015 11.0899 1 7.5 1C3.91015 1 1 3.91015 1 7.5C1 11.0899 3.91015 14 7.5 14Z"
              fill="#FFF4EB" fill-opacity="0.15"/>
        <path d="M13.894 9.3798C14.5524 6.37988 12.9876 3.23274 10.0342 1.9791C6.70162 0.564492 2.86291 2.09653 1.46025 5.40101C0.0575812 8.70548 1.62211 12.5311 4.95472 13.9457C6.1879 14.4691 7.49037 14.5891 8.71307 14.3651"
              stroke="#F26522"/>
        <path d="M6.93732 11L7.37179 9.94505L9.40133 5H10.5L8.06799 11H6.93732Z" fill="#F26522"/>
        <path d="M8.06268 11L7.62821 9.94505L5.59867 5H4.5L6.93201 11H8.06268Z" fill="#F26522"/>
        <path fill-rule="evenodd" clip-rule="evenodd"
              d="M10.4243 9.57576C10.19 9.34145 9.81007 9.34145 9.57576 9.57576C9.34145 9.81007 9.34145 10.19 9.57576 10.4243L11.1515 12L9.57576 13.5758C9.34145 13.8101 9.34145 14.19 9.57576 14.4243C9.81007 14.6586 10.19 14.6586 10.4243 14.4243L12.4243 12.4243L12.8486 12L12.4243 11.5758L10.4243 9.57576ZM16 14.5C16 14.7761 15.9105 15 15.8 15H12.2C12.0896 15 12 14.7761 12 14.5C12 14.2239 12.0896 14 12.2 14H15.8C15.9105 14 16 14.2239 16 14.5Z"
              fill="#369650"/>
    </g>
    <defs>
        <clipPath id="clip0_19_51">
            <rect width="16" height="16" fill="white"/>
        </clipPath>
    </defs>
</svg>
