<svg width="16" height="16" viewBox="0 0 16 16" fill="none" xmlns="http://www.w3.org/2000/svg">
    <g clip-path="url(#clip0_11_306)">
        <path d="M7.5 14C11.0899 14 14 11.0899 14 7.5C14 3.91015 11.0899 1 7.5 1C3.91015 1 1 3.91015 1 7.5C1 11.0899 3.91015 14 7.5 14Z"
              fill="#EDF3FF" fill-opacity="0.15"/>
        <path d="M11.2986 13.3076C9.79783 14.3305 7.87887 14.7224 5.9843 14.2248C2.51221 13.3128 0.436815 9.75885 1.34877 6.28677C2.26072 2.81468 5.81468 0.739282 9.28677 1.65123C12.2278 2.4237 14.1667 5.09176 14.1368 8"
              stroke="#389FD6"/>
        <path d="M7.11572 10.4971L5.9126 6.57666H5.88184C5.88639 6.67008 5.89323 6.81136 5.90234 7.00049C5.91374 7.18734 5.92399 7.38672 5.93311 7.59863C5.94222 7.81055 5.94678 8.00195 5.94678 8.17285V10.4971H5V5.5H6.44238L7.625 9.32129H7.64551L8.8999 5.5H10.3423V10.4971H9.35449V8.13184C9.35449 7.97461 9.35677 7.79346 9.36133 7.58838C9.36816 7.3833 9.37614 7.18848 9.38525 7.00391C9.39437 6.81706 9.4012 6.67692 9.40576 6.5835H9.375L8.08643 10.4971H7.11572Z"
              fill="#389FD6"/>
        <path fill-rule="evenodd" clip-rule="evenodd"
              d="M14.2 9.44755V13.4202L15.2318 12.3593C15.4075 12.1786 15.6925 12.1786 15.8682 12.3593C16.0439 12.54 16.0439 12.833 15.8682 13.0137L14.0682 14.8645C13.8925 15.0452 13.6075 15.0452 13.4318 14.8645L11.6318 13.0137C11.4561 12.833 11.4561 12.54 11.6318 12.3593C11.8075 12.1786 12.0925 12.1786 12.2682 12.3593L13.3 13.4202V9.44755C13.3 9.14919 13.525 9 13.75 9C13.975 9 14.2 9.14918 14.2 9.44755Z"
              fill="#DB3B4B"/>
    </g>
    <defs>
        <clipPath id="clip0_11_306">
            <rect width="16" height="16" fill="white"/>
        </clipPath>
    </defs>
</svg>
