<svg width="16" height="16" viewBox="0 0 16 16" fill="none" xmlns="http://www.w3.org/2000/svg">
    <path d="M8 15C11.866 15 15 11.866 15 8C15 4.13401 11.866 1 8 1C4.13401 1 1 4.13401 1 8C1 11.866 4.13401 15 8 15Z"
          fill="#EDF3FF" fill-opacity="0.15"/>
    <path fill-rule="evenodd" clip-rule="evenodd"
          d="M8 14C11.3137 14 14 11.3137 14 8C14 4.68629 11.3137 2 8 2C4.68629 2 2 4.68629 2 8C2 11.3137 4.68629 14 8 14ZM8 15C11.866 15 15 11.866 15 8C15 4.13401 11.866 1 8 1C4.13401 1 1 4.13401 1 8C1 11.866 4.13401 15 8 15Z"
          fill="#389FD6"/>
    <path d="M7.41571 10.4971L6.21259 6.57666H6.18182C6.18638 6.67008 6.19322 6.81136 6.20233 7.00049C6.21372 7.18734 6.22398 7.38672 6.23309 7.59863C6.24221 7.81055 6.24677 8.00195 6.24677 8.17285V10.4971H5.29999V5.5H6.74237L7.92499 9.32129H7.9455L9.19989 5.5H10.6423V10.4971H9.65448V8.13184C9.65448 7.97461 9.65676 7.79346 9.66132 7.58838C9.66815 7.3833 9.67613 7.18848 9.68524 7.00391C9.69436 6.81706 9.70119 6.67692 9.70575 6.5835H9.67499L8.38641 10.4971H7.41571Z"
          fill="#389FD6"/>
</svg>
