<svg width="16" height="16" viewBox="0 0 16 16" fill="none" xmlns="http://www.w3.org/2000/svg">
    <path d="M3.63636 2H12.3636C13.2673 2 14 2.73262 14 3.63636V12.3636C14 13.2673 13.2673 14 12.3636 14H3.63636C2.73262 14 2 13.2673 2 12.3636V3.63636C2 2.73262 2.73262 2 3.63636 2Z"
          fill="#F2FCF3" fill-opacity="0.15" stroke="#208A3C"/>
    <path d="M5.79999 8C5.79999 7.44772 5.35227 7 4.79999 7C4.2477 7 3.79999 7.44772 3.79999 8C3.79999 8.55228 4.2477 9 4.79999 9C5.35227 9 5.79999 8.55228 5.79999 8Z"
          fill="#208A3C"/>
    <path d="M9 8C9 7.44772 8.55228 7 8 7C7.44772 7 7 7.44772 7 8C7 8.55228 7.44772 9 8 9C8.55228 9 9 8.55228 9 8Z"
          fill="#208A3C"/>
    <path d="M12.2 8C12.2 7.44772 11.7523 7 11.2 7C10.6477 7 10.2 7.44772 10.2 8C10.2 8.55228 10.6477 9 11.2 9C11.7523 9 12.2 8.55228 12.2 8Z"
          fill="#208A3C"/>
</svg>
