<svg width="16" height="16" viewBox="0 0 16 16" fill="none" xmlns="http://www.w3.org/2000/svg">
    <path d="M3.63636 2H12.3636C13.2673 2 14 2.73262 14 3.63636V12.3636C14 13.2673 13.2673 14 12.3636 14H3.63636C2.73262 14 2 13.2673 2 12.3636V3.63636C2 2.73262 2.73262 2 3.63636 2Z"
          fill="#F2FCF3" fill-opacity="0.15" stroke="#2AAE4D"/>
    <path d="M10.2312 10.3447V6.06152H11.1394V9.59473H12.8767V10.3447H10.2312Z" fill="#2AAE4D"/>
    <path d="M8.58893 10.3447H7.68072V6.81738H6.51764V6.06152H9.75201V6.81738H8.58893V10.3447Z" fill="#2AAE4D"/>
    <path d="M5.10974 6.75586C4.93591 6.75586 4.78162 6.79004 4.64685 6.8584C4.51404 6.9248 4.40173 7.02148 4.30994 7.14844C4.22009 7.27539 4.15173 7.42871 4.10486 7.6084C4.05798 7.78809 4.03455 7.99023 4.03455 8.21484C4.03455 8.51758 4.07166 8.77637 4.14587 8.99121C4.22205 9.2041 4.33923 9.36719 4.49744 9.48047C4.65564 9.5918 4.85974 9.64746 5.10974 9.64746C5.28357 9.64746 5.4574 9.62793 5.63123 9.58887C5.80701 9.5498 5.99744 9.49414 6.20251 9.42188V10.1836C6.01306 10.2617 5.82654 10.3174 5.64294 10.3506C5.45935 10.3857 5.2533 10.4033 5.02478 10.4033C4.58337 10.4033 4.22009 10.3125 3.93494 10.1309C3.65173 9.94727 3.44177 9.69141 3.30505 9.36328C3.16833 9.0332 3.09998 8.64844 3.09998 8.20898C3.09998 7.88477 3.14392 7.58789 3.23181 7.31836C3.3197 7.04883 3.44861 6.81543 3.61853 6.61816C3.78845 6.4209 3.99841 6.26855 4.24841 6.16113C4.49841 6.05371 4.78552 6 5.10974 6C5.32263 6 5.53552 6.02734 5.74841 6.08203C5.96326 6.13477 6.16833 6.20801 6.36365 6.30176L6.07068 7.04004C5.91052 6.96387 5.74939 6.89746 5.58728 6.84082C5.42517 6.78418 5.26599 6.75586 5.10974 6.75586Z"
          fill="#2AAE4D"/>
</svg>
