<svg width="16" height="16" viewBox="0 0 16 16" fill="none" xmlns="http://www.w3.org/2000/svg">
    <path d="M3.63636 2H12.3636C13.2673 2 14 2.73262 14 3.63636V12.3636C14 13.2673 13.2673 14 12.3636 14H3.63636C2.73262 14 2 13.2673 2 12.3636V3.63636C2 2.73262 2.73262 2 3.63636 2Z"
          fill="#F2FCF3" fill-opacity="0.15" stroke="#208A3C"/>
    <path d="M10.7732 8.47192C11.0945 8.47192 11.3592 8.5101 11.5675 8.58644C11.7774 8.66279 11.9331 8.7781 12.0348 8.93239C12.1365 9.08667 12.1874 9.28151 12.1874 9.51691C12.1874 9.67596 12.1567 9.81514 12.0954 9.93443C12.034 10.0537 11.9533 10.1547 11.8532 10.2374C11.7531 10.3201 11.645 10.3877 11.5287 10.4402L12.57 11.96H11.737L10.8919 10.6215H10.4923V11.96H9.74164V8.47192H10.7732ZM10.7199 9.07792H10.4923V10.0203H10.7345C10.9831 10.0203 11.1607 9.97976 11.2672 9.89864C11.3754 9.81593 11.4295 9.69505 11.4295 9.536C11.4295 9.37058 11.3713 9.25288 11.2551 9.1829C11.1405 9.11291 10.9621 9.07792 10.7199 9.07792Z"
          fill="#208A3C"/>
    <path d="M8.88159 11.96L8.6249 11.1297H7.33422L7.07753 11.96H6.26874L7.51826 8.45764H8.43602L9.69038 11.96H8.88159ZM8.44571 10.5094L8.18902 9.69826C8.17288 9.64418 8.15109 9.575 8.12364 9.4907C8.09781 9.40481 8.07118 9.31812 8.04373 9.23064C8.0179 9.14157 7.99691 9.06443 7.98077 8.99922C7.96463 9.06443 7.94203 9.14555 7.91297 9.24257C7.88552 9.33801 7.85889 9.42867 7.83306 9.51456C7.80723 9.60044 7.78866 9.66168 7.77736 9.69826L7.5231 10.5094H8.44571Z"
          fill="#208A3C"/>
    <path d="M6.66308 8.47192L5.45957 11.96H4.64109L3.44 8.47192H4.19795L4.86387 10.5476C4.87517 10.5826 4.89374 10.6486 4.91957 10.7456C4.9454 10.841 4.97123 10.9428 4.99706 11.051C5.0245 11.1576 5.04307 11.2458 5.05275 11.3158C5.06244 11.2458 5.07939 11.1576 5.1036 11.051C5.12943 10.9444 5.15446 10.8434 5.17867 10.748C5.2045 10.651 5.22307 10.5842 5.23437 10.5476L5.90514 8.47192H6.66308Z"
          fill="#208A3C"/>
    <path d="M10.1967 7.51808H9.24263L7.70252 4.87938H7.68073C7.68719 4.98913 7.69284 5.09967 7.69768 5.21101C7.70252 5.32234 7.70737 5.43368 7.71221 5.54502C7.71705 5.65477 7.72189 5.76531 7.72674 5.87665V7.51808H7.05597V4.03003H8.00279L9.54048 6.64249H9.55743C9.5542 6.53433 9.55016 6.42697 9.54532 6.32041C9.54048 6.21384 9.53563 6.10727 9.53079 6.00071C9.52756 5.89414 9.52433 5.78758 9.5211 5.68101V4.03003H10.1967V7.51808Z"
          fill="#208A3C"/>
    <path d="M5.81085 7.51808V4.03003H6.56153V7.51808H5.81085Z" fill="#208A3C"/>
</svg>
